<svg width="248" height="63" viewBox="0 0 248 63" fill="none" xmlns="http://www.w3.org/2000/svg">
<path d="M18.9416 37.3344L28.9424 46.1573L39.4806 36.9472V36.9452C40.2221 36.076 41.3272 35.5255 42.5617 35.5255C44.7962 35.5255 46.6873 37.3062 46.6873 39.5366C46.6873 40.545 46.4509 41.8215 45.6771 42.4951H45.6427L28.9404 57.0493C28.9404 57.0493 16.5232 45.994 12.4239 42.2551L12.4158 42.241C8.75088 38.2419 6.51636 32.9159 6.51636 27.0696C6.51636 14.651 16.602 4.58387 29.0434 4.58387C34.9126 4.58387 40.2564 6.82438 44.2649 10.4947L44.2689 10.4927C45.1134 11.2328 45.6508 12.342 45.6508 13.552C45.6508 15.7824 43.8386 17.5913 41.604 17.5913C40.5635 17.5913 39.616 17.2001 38.8988 16.5568L38.9008 16.5628C36.343 14.2215 32.7892 12.7292 29.0454 12.7292C21.1115 12.7292 14.6786 19.1502 14.6786 27.0696C14.6786 31.0304 16.2868 34.616 18.887 37.2114M21.6671 33.7589C20.0568 31.9923 19.0749 29.6429 19.0749 27.0676C19.0749 21.5722 23.5379 17.1194 29.0414 17.1194C31.6719 17.1194 34.0661 18.1378 35.848 19.7996H35.842C37.3532 21.1467 39.418 22.0764 41.602 22.0764C46.3196 22.0764 50.1421 18.2588 50.1421 13.552C50.1421 11.1118 49.1501 8.79869 47.5055 7.24384L47.5116 7.24788C42.6708 2.75072 36.1773 0 29.0414 0C14.0644 0 1.92204 12.1201 1.92204 27.0696C1.92204 35.1685 4.75459 41.8518 10.4035 46.8127V46.8168L28.9404 62.9501L48.2349 45.994V45.998C49.9704 44.4371 51.1018 42.0837 51.1018 39.5689C51.1018 34.86 47.2792 31.0445 42.5617 31.0445C40.0948 31.0445 37.8724 32.0891 36.3127 33.7569L36.1632 33.8597L28.9404 40.061L21.5661 33.7085" fill="#2A2285"/>
<path fill-rule="evenodd" clip-rule="evenodd" d="M143.778 2.23254V31.4744C143.778 40.8842 151.401 48.4775 160.781 48.4775C170.161 48.4775 177.784 40.8544 177.784 31.4744C177.784 22.0944 170.19 14.4712 160.781 14.4712C157.237 14.4712 153.962 15.573 151.222 17.4192V2.23254H143.778ZM132.611 47.9415V45.5295C129.871 47.4055 126.596 48.4775 123.052 48.4775C113.672 48.4775 106.049 40.8544 106.049 31.4744C106.049 22.0944 113.642 14.4712 123.052 14.4712C132.432 14.4712 140.055 22.0646 140.055 31.4744V47.9415H132.611ZM123.022 21.9157C117.752 21.9157 113.464 26.1739 113.464 31.4744C113.464 36.7451 117.752 41.0331 123.022 41.0331C128.293 41.0331 132.581 36.7748 132.581 31.4744C132.581 26.2037 128.323 21.9157 123.022 21.9157ZM76.7773 31.4744C76.7773 26.1739 81.0654 21.9157 86.336 21.9157C90.3263 21.9157 93.7209 24.3277 95.1801 27.7522H102.952C101.255 20.1588 94.4654 14.4712 86.336 14.4712C76.956 14.4712 69.3329 22.0646 69.3329 31.4744C69.3329 40.8842 76.956 48.4775 86.3063 48.4775C94.4356 48.4775 101.225 42.79 102.922 35.1966H95.1503C93.6912 38.6211 90.2965 41.0331 86.336 41.0331C81.0654 41.0331 76.7773 36.7748 76.7773 31.4744ZM182.072 47.9415V14.9775H189.516V47.9415H182.072ZM211.314 1.69653C213.16 1.69653 214.917 2.08364 216.495 2.79831L213.517 9.58766C212.832 9.31966 212.118 9.141 211.343 9.141C208.395 9.141 206.013 11.5232 206.013 14.4712V15.0072H215.572C218.401 15.0072 221.14 16.645 222.361 19.4144L230.133 36.8344L239.841 14.9775H248L230.729 53.6887C227.87 60.1207 220.307 63.0091 213.875 60.1504L216.912 53.3611C219.592 54.5522 222.748 53.3313 223.939 50.6513L226.024 46.006L215.542 22.4517H205.983V47.9713H198.539V22.4517H193.745V15.0072H198.539V14.4712C198.539 7.41388 204.256 1.69653 211.314 1.69653ZM185.794 10.213C188.147 10.213 190.052 8.30722 190.052 5.95477C190.052 3.60232 188.147 1.69653 185.794 1.69653C183.442 1.69653 181.536 3.60232 181.536 5.95477C181.536 8.30722 183.442 10.213 185.794 10.213ZM170.339 31.4743C170.339 36.7535 166.059 41.033 160.78 41.033C155.501 41.033 151.222 36.7535 151.222 31.4743C151.222 26.1952 155.501 21.9157 160.78 21.9157C166.059 21.9157 170.339 26.1952 170.339 31.4743Z" fill="#2A2285"/>
</svg>
