<svg width="269" height="68" viewBox="0 0 269 68" fill="none" xmlns="http://www.w3.org/2000/svg">
<path d="M44.7667 19.6507C45.5065 16.9654 50.0557 16.7396 50.8099 19.521C54.1677 28.019 57.3526 36.5841 60.9219 45.0004C61.2773 45.8987 61.7289 46.821 61.628 47.8202C61.09 49.3622 59.1877 49.9435 57.7273 49.4583C56.7377 49.0164 56.3967 47.9019 56.0412 46.9747C53.3126 39.2646 50.5553 31.5642 47.8219 23.8589C45.5017 30.4064 43.0661 36.9108 40.7411 43.4536C39.91 45.3319 39.5449 47.4839 38.2335 49.1124C36.2255 50.6449 32.8388 48.3871 34.1503 45.9131C37.7964 37.2038 41.3944 28.4705 44.7667 19.6507Z" fill="#2A2285"/>
<path d="M5.78858 18.6181C9.42025 16.687 13.7965 17.0521 17.5915 18.2674C18.7636 18.719 20.2961 19.1561 20.6563 20.5348C21.1463 21.9663 19.9262 23.8062 18.3553 23.6429C16.6452 23.3306 15.1176 22.3891 13.393 22.1249C11.1784 21.7117 8.62282 21.9135 6.91267 23.542C5.4379 24.8294 4.89507 27.4619 6.45631 28.8886C8.25293 30.349 10.674 30.5219 12.8261 31.132C15.7949 31.8958 19.1143 32.9718 20.738 35.7965C22.4674 39.0679 21.8957 43.4105 19.465 46.1919C17.5195 48.4545 14.5411 49.4489 11.6588 49.7707H9.42986C6.73973 49.4729 3.99196 49.0117 1.59006 47.7147C0.82145 47.34 0.355481 46.605 0 45.8652V44.818C0.321855 43.742 1.1385 42.5746 2.41151 42.7188C4.27538 42.9589 5.86544 44.1167 7.69088 44.5298C10.1793 45.1591 13.1528 45.111 15.1704 43.3336C16.9862 41.782 17.1448 38.4962 15.0503 37.1127C11.9471 35.0423 7.93588 35.3257 4.69331 33.5339C2.39229 32.4867 0.514007 30.3057 0.403519 27.7021C0.024019 23.9023 2.44994 20.2754 5.78858 18.6181Z" fill="#2A2285"/>
<path d="M71.0913 22.2592C68.8431 22.2064 68.6221 18.4114 70.6349 17.7821C71.3939 17.5659 72.1961 17.6379 72.9791 17.6283C79.08 17.686 85.1808 17.6812 91.2768 17.5803C92.2808 17.5803 93.6307 17.4986 94.1543 18.5699C94.7404 19.8621 94.3512 22.0382 92.6651 22.1871C89.8981 22.3649 87.1215 22.2015 84.3545 22.264C84.3305 30.6466 84.5707 39.0293 84.4794 47.4119C84.4218 49.5496 81.4627 50.2077 80.0167 49.0164C79.3298 48.3342 79.4306 47.2966 79.397 46.4175C79.4355 38.3615 79.5603 30.3104 79.4018 22.2592C76.63 22.2448 73.8582 22.3649 71.0913 22.2592Z" fill="#2A2285"/>
<path d="M112.866 19.4107C113.726 16.9944 117.9 16.8262 118.726 19.353C122.103 27.8462 125.274 36.4257 128.848 44.842C129.223 45.7787 129.703 46.7395 129.626 47.7867C129.088 49.4344 126.926 50.0589 125.452 49.3191C124.717 48.834 124.424 47.9645 124.092 47.1959C123.348 45.2647 122.622 43.324 121.93 41.3736C117.804 41.3929 113.677 41.3304 109.551 41.34C108.552 43.6843 107.865 46.163 106.731 48.4497C105.617 50.6498 101.529 49.4152 101.923 46.9124C102.249 44.9621 103.311 43.2327 103.993 41.4025C107.159 34.1535 109.94 26.7557 112.866 19.4107ZM110.954 37.2136C114.115 37.2376 117.276 37.1895 120.436 37.1415C118.894 32.7172 117.357 28.2833 115.801 23.8638C114.23 28.3313 112.606 32.7748 110.954 37.2136Z" fill="#2A2285"/>
<path d="M144.397 18.3535C145.833 17.3159 147.736 17.7146 149.393 17.5465C153.808 17.3688 158.852 17.2967 162.301 20.5248C167.508 25.4343 165.25 35.407 158.506 37.7225C155.292 38.6592 151.886 38.2845 148.581 38.4046C148.557 41.5559 148.749 44.712 148.61 47.8633C148.221 50.5198 143.143 50.2315 143.46 47.3541C143.436 39.0195 143.648 30.6849 143.412 22.3503C143.441 20.9956 143.235 19.3191 144.397 18.3535ZM148.677 33.7257C151.142 33.668 153.644 33.8986 156.085 33.423C160.514 32.4623 161.768 25.3671 157.761 23.1045C154.946 21.6057 151.636 22.2686 148.586 22.1677C148.596 26.0204 148.615 29.873 148.677 33.7257Z" fill="#2A2285"/>
<path d="M180.647 17.9739C182.501 17.4071 184.48 17.6329 186.392 17.5176C190.168 17.3735 194.318 17.5896 197.388 20.0636C199.454 21.62 200.482 24.1468 200.799 26.6544V28.3357C200.52 32.5919 197.686 36.8673 193.41 37.9337C190.384 38.5582 187.271 38.3228 184.202 38.4141C184.178 41.527 184.374 44.6495 184.235 47.7623C184 50.4957 178.802 50.2939 179.09 47.3972C179.047 39.0578 179.282 30.7136 179.028 22.3742C179.018 20.8226 178.898 18.6609 180.647 17.9739ZM184.206 22.1725C184.221 26.0203 184.24 29.8682 184.293 33.7208C186.757 33.668 189.26 33.8985 191.695 33.423C196.009 32.491 197.345 25.7417 193.67 23.2773C190.831 21.548 187.348 22.2733 184.206 22.1725Z" fill="#2A2285"/>
<path d="M242.105 0H243.545C247.705 0.0624179 251.834 1.20316 255.458 3.23927C256.62 3.83117 256.971 5.49062 256.175 6.51514C255.553 7.41697 254.238 7.65372 253.312 7.08335C250.409 5.49277 247.144 4.54359 243.827 4.45535C239.361 4.31329 234.895 5.71877 231.225 8.24992C226.959 11.1663 223.737 15.6195 222.431 20.6323C221.131 25.4084 221.703 30.574 223.614 35.1047C225.328 39.1532 227.895 42.7584 230.489 46.2818C230.969 46.9103 231.132 47.782 230.823 48.5245C230.448 49.5426 229.245 50.1538 228.205 49.8202C227.478 49.6308 227.03 48.9851 226.617 48.4104C224.566 45.6038 222.566 42.7433 220.954 39.6547C218.414 34.911 217.026 29.4806 217.448 24.0868C217.88 17.9355 220.67 12.0165 225.05 7.68816C229.546 3.15964 235.723 0.335765 242.105 0Z" fill="#2A2285"/>
<path d="M257.731 9.25071C257.75 8.0906 258.816 7.06393 259.984 7.13711C260.708 7.14142 261.314 7.59771 261.769 8.12288C265.923 12.5632 268.62 18.4369 268.96 24.5323C269.267 29.8292 267.797 35.1068 265.326 39.7623C264.444 41.4885 263.361 43.1006 262.283 44.7084C259.646 48.5611 256.855 52.3061 253.992 55.9931C251.719 58.8686 249.436 61.7441 246.92 64.4152C246.132 65.2116 245.351 66.0338 244.421 66.6687C243.706 67.1616 242.699 67.1551 241.995 66.6472C240.531 65.6184 239.352 64.2538 238.145 62.9473C235.908 60.4183 233.795 57.7838 231.748 55.102C231.016 54.1378 231.283 52.6096 232.303 51.9575C233.179 51.3268 234.501 51.5291 235.159 52.3793C237.742 55.6509 240.293 58.9612 243.203 61.9508C245.787 59.2926 248.095 56.3848 250.398 53.4856C253.461 49.5511 256.457 45.5585 259.229 41.4153C262.094 37.2419 264.252 32.4336 264.59 27.3304C265.032 21.3792 262.645 15.3892 258.538 11.1146C258.039 10.6282 257.677 9.96529 257.731 9.25071Z" fill="#2A2285"/>
<path d="M240.092 7.91416C243.956 7.22972 248.02 7.92708 251.48 9.75872C255.686 11.9649 259.046 15.7788 260.589 20.2815C261.954 24.1622 261.857 28.4992 260.456 32.3518C260.09 33.3764 258.887 34.0027 257.843 33.6734C256.653 33.3548 255.953 31.9472 256.39 30.8C257.311 28.1268 257.498 25.1738 256.706 22.4425C255.163 16.9217 249.987 12.6708 244.287 12.1564C241.627 11.8981 238.9 12.5008 236.571 13.8051C235.796 14.3217 234.802 14.7694 233.892 14.2937C232.422 13.6717 232.191 11.4268 233.502 10.5206C235.493 9.22064 237.753 8.32957 240.092 7.91416Z" fill="#2A2285"/>
<path d="M228.855 15.1762C229.938 14.6445 231.352 15.2515 231.757 16.375C232.097 17.1649 231.845 18.0538 231.374 18.7297C229.895 21.0133 229.053 23.7382 229.187 26.4695C229.322 29.7497 230.64 32.8512 232.31 35.632C232.68 36.2648 233.175 36.8954 233.143 37.6703C233.154 38.6905 232.37 39.6569 231.358 39.8226C230.491 39.997 229.572 39.5514 229.129 38.7981C226.733 35.0466 224.908 30.7656 224.835 26.2586C224.74 22.5501 225.945 18.8631 228.05 15.8262C228.253 15.5421 228.539 15.3225 228.855 15.1762Z" fill="#2A2285"/>
<path d="M240.709 15.6303C243.761 14.9545 247.099 15.6045 249.63 17.4491C252.024 19.1236 253.562 21.8571 253.939 24.7347C254.376 27.7028 253.207 30.6085 251.843 33.1827C249.916 36.7276 247.381 39.8872 244.893 43.0469C244.062 44.2113 242.142 44.1532 241.382 42.9414C239.148 39.9217 236.763 37.0031 234.79 33.8026C233.339 31.4048 232.207 28.6778 232.321 25.826C232.47 22.3047 234.314 18.8029 237.379 16.9777C238.406 16.3492 239.534 15.8843 240.709 15.6303ZM239.62 20.7723C237.825 21.8786 236.725 23.9577 236.671 26.0477C236.669 28.0838 237.605 29.9606 238.627 31.6696C240.014 33.9102 241.619 36.0044 243.208 38.1051C244.972 35.8301 246.705 33.512 248.102 30.9873C248.877 29.5194 249.613 27.9546 249.693 26.2694C249.701 24.4162 248.913 22.5394 247.478 21.3427C245.321 19.5498 242.013 19.3044 239.62 20.7723Z" fill="#2A2285"/>
<path d="M252.714 37.7217C253.308 36.8973 253.739 35.7544 254.841 35.5069C256.095 35.141 257.469 36.1741 257.525 37.4677C257.628 38.4879 256.881 39.2821 256.384 40.0893C252.839 45.3044 248.945 50.2741 245.028 55.2138C244.277 56.3932 242.404 56.5697 241.537 55.429C239.21 52.4588 236.916 49.4627 234.602 46.4839C233.879 45.6595 233.847 44.3208 234.6 43.5072C235.422 42.5106 237.118 42.558 237.887 43.5997C239.673 45.8726 241.427 48.1734 243.207 50.4549C246.477 46.288 249.724 42.0974 252.714 37.7217Z" fill="#2A2285"/>
</svg>
