<svg width="200" height="51" viewBox="0 0 200 51" fill="none" xmlns="http://www.w3.org/2000/svg">
<path fill-rule="evenodd" clip-rule="evenodd" d="M0 0.0715373V51H26.2918L26.2439 50.976C28.6907 50.88 31.0656 50.4243 33.3926 49.7286C33.6885 49.6166 33.9818 49.5046 34.275 49.3927C34.8614 49.1688 35.4477 48.9449 36.0553 48.721C39.6777 46.8739 42.4124 44.7389 45.2191 41.7403C45.2671 41.6123 45.6509 41.0846 46.3706 40.157C48.5056 36.8945 49.8729 33.632 50.6646 29.7938C50.7511 28.9068 50.8572 28.0392 50.9651 27.1561C50.9769 27.0599 50.9887 26.9637 51.0004 26.8671L50.9978 26.7962C50.9507 25.5253 50.9045 24.2771 50.9045 23.0289C50.5446 20.63 49.9929 18.519 49.2972 16.1921C48.7695 15.1367 48.2658 14.0814 47.7622 13.0261L47.7619 13.0255C46.3466 10.7946 44.8833 8.87547 43.0361 6.98034C39.2459 3.71785 35.2157 1.39093 30.25 0.479349C30.214 0.443366 29.9262 0.395388 29.6383 0.34741C29.3504 0.299432 29.0626 0.251454 29.0266 0.215471C28.115 0.143504 27.2034 0.0715374 26.2918 0.0235596C21.9139 0.0235596 17.5299 0.035554 13.1459 0.0475485C8.76195 0.0595429 4.37798 0.0715373 0 0.0715373ZM24.6027 40.1408C24.8728 41.9635 25.1426 43.7845 25.404 45.6026H25.452C25.4863 45.5339 25.6407 44.4609 25.8006 43.3495C25.976 42.131 26.158 40.8664 26.1956 40.8288C27.5344 30.8671 28.0957 26.8574 28.3565 24.9947C28.5302 23.7533 28.5705 23.4655 28.6185 23.005C26.6649 22.5112 26.3251 18.3095 26.1721 16.4175C26.1542 16.1953 26.1388 16.005 26.1236 15.8563C28.4026 15.9283 30.9454 16.0722 33.0085 17.1037C35.5753 17.1037 35.6952 13.5054 33.0804 13.2655C30.9214 14.2251 28.5465 14.441 26.2196 14.5609C26.1856 14.5496 26.1623 14.5329 26.1421 14.5184C26.1196 14.5023 26.101 14.4889 26.0757 14.4889C26.0805 14.4279 26.0852 14.367 26.09 14.3064C26.2753 11.9378 26.4349 9.89757 27.3471 7.6521C27.1072 5.85294 25.6439 5.18125 24.1086 6.18878C23.6768 6.66856 23.5328 7.02839 23.5328 7.67609C24.4444 9.90706 24.6843 12.162 24.8043 14.5609C22.3574 14.465 20.0784 14.1531 17.7995 13.2655C15.1367 13.5054 15.3046 17.1037 17.8475 17.1037C19.9105 16.1202 22.4054 15.8803 24.6843 15.8323C24.7667 16.9854 24.5309 18.2091 24.3108 19.3518C24.2744 19.5405 24.2385 19.7269 24.2045 19.9104C24.1921 19.9528 24.1796 19.9953 24.1672 20.0377C23.8204 21.2211 23.4673 22.4261 22.3094 23.005C22.9094 28.7136 23.7573 34.436 24.6027 40.1408Z" fill="#2A2285"/>
<path fill-rule="evenodd" clip-rule="evenodd" d="M36.6719 50.8325C36.6182 50.8566 36.5644 50.8806 36.5105 50.9045L36.4625 50.8325H36.6719ZM36.6719 50.8325C39.9613 49.3554 42.7919 47.4588 45.5063 45.0512C45.5523 44.9776 45.7217 44.7983 46.0049 44.4984L46.005 44.4983L46.005 44.4983C46.4607 44.0158 47.2112 43.2211 48.2171 42.0526C49.7044 39.9655 51.0238 37.9025 52.1513 35.5755C52.4871 34.664 52.823 33.7764 53.1588 32.8888C55.0539 26.5557 54.958 20.4146 52.9669 14.1055C52.655 13.2659 52.3192 12.4263 51.9833 11.5866C50.1122 7.91634 47.8573 4.84576 44.8826 1.96709L44.8825 1.96697L44.8825 1.96696C44.1149 1.31931 43.3473 0.671649 42.5797 0.0479778C68.6526 0.0479778 94.7316 0.0359861 120.814 0.023993C146.901 0.0119972 172.992 0 199.083 0C199.083 0 199.131 0.0479778 199.155 0.0479778V50.8805C172.033 50.8805 144.91 50.8685 117.791 50.8565H117.782H117.773H117.764H117.755H117.746H117.737H117.728H117.719C90.6993 50.8445 63.6826 50.8326 36.6719 50.8325ZM139.423 36.9428C141.319 39.7974 143.526 40.9489 146.884 41.2608H146.908C149.619 40.9489 151.994 40.2053 154.321 38.8139C154.199 38.2035 153.785 37.5044 153.411 36.8733L153.411 36.8732C153.271 36.6362 153.137 36.4087 153.025 36.1991C152.945 36.1991 152.769 36.2631 152.497 36.391C150.602 36.9907 148.707 37.1107 146.764 36.8468C146.332 36.655 145.925 36.4631 145.517 36.2713L145.517 36.2711C142.23 33.7283 142.614 29.4822 144.749 26.3397C145.829 25.1402 146.884 24.6844 148.443 24.3006H150.674C151.522 24.4925 152.138 24.6045 152.521 24.6365C153.289 22.6374 153.689 21.5419 153.721 21.35C151.73 20.7023 149.787 20.1985 147.7 20.1985C140.215 21.0621 136.809 28.2108 138.608 35.1676C138.69 35.3458 138.771 35.5263 138.854 35.7084L138.855 35.7122C139.039 36.1172 139.225 36.53 139.423 36.9428ZM87.5835 16.5036H86.0482C82.6177 16.5036 79.811 18.4706 77.9159 21.1574C77.5565 21.9213 77.3186 22.5262 77.173 22.8962C77.0855 23.1188 77.0314 23.2564 77.0043 23.2924C76.3087 26.0751 76.5006 28.594 77.4361 31.2567C78.8035 33.8715 80.2668 35.2389 82.9536 36.2704C83.4329 36.3503 83.9121 36.4468 84.4053 36.5461L84.7048 36.6063C84.9095 36.6063 85.1366 36.6105 85.3776 36.6149H85.3777C86.5485 36.6365 88.0474 36.6642 88.9028 36.2464C88.9028 34.1114 88.9028 31.9524 88.9508 29.8174L84.0331 29.6735V25.5954V25.5474H93.9645C93.9645 30.0813 93.9645 34.6392 94.0125 39.1971C93.6023 39.3406 93.1922 39.4798 92.7839 39.6183L92.7839 39.6183L92.7838 39.6183L92.7838 39.6183L92.7838 39.6184L92.7837 39.6184L92.7837 39.6184L92.7837 39.6184C92.2369 39.8039 91.6934 39.9883 91.1578 40.1806L90.9119 40.2378L90.6246 40.3049C89.1685 40.6452 87.7831 40.969 86.2641 41.1402C83.9371 41.2361 81.9701 41.0202 79.7391 40.3725C75.4451 38.5973 72.9022 35.5747 71.6068 31.1128C70.9591 27.6104 70.9591 24.6118 71.9907 21.1574C72.6863 19.4542 73.6219 18.0628 74.7254 16.5755C76.7645 14.5125 78.8035 13.481 81.5383 12.5214C85.5204 11.6578 89.3346 12.1376 93.2208 13.2171L93.2204 13.2183C92.7648 14.5133 92.3091 15.8083 91.8775 17.1033C90.1343 16.8154 88.7189 16.6235 87.6314 16.5275L87.5835 16.5036ZM99.1227 22.2846C101.618 21.301 103.992 20.3655 106.463 20.2695L106.487 20.2455C107.951 20.1975 109.462 20.4374 111.021 21.1811C112.844 22.4525 113.516 23.9398 113.924 26.1228C113.924 28.5457 113.936 30.9686 113.948 33.3915C113.96 35.8143 113.972 38.2372 113.972 40.6601C112.532 40.6361 111.093 40.6361 109.654 40.6361C109.654 40.6085 109.648 40.581 109.632 40.5074C109.593 40.3248 109.492 39.8586 109.27 38.4051C109.257 38.3987 109.246 38.3923 109.236 38.3863C109.207 38.37 109.185 38.3572 109.15 38.3572C106.967 40.3482 104.88 41.5237 101.881 40.9719C99.8183 40.2043 98.7868 39.1488 97.8512 37.1577C97.4914 35.4545 97.4194 34.0631 98.0432 32.4079C98.3768 31.8333 98.8537 31.3589 99.33 30.8852C99.4701 30.7458 99.6101 30.6066 99.7464 30.4648C102.43 28.6685 105.359 28.4918 108.458 28.3048L108.46 28.3047C108.713 28.2894 108.967 28.2741 109.222 28.2578C109.15 26.4347 109.078 24.9474 107.207 24.1317C106.031 23.8918 104.664 23.9878 103.489 24.2517C102.753 24.4596 102.039 24.6888 101.324 24.918C100.967 25.0326 100.61 25.1473 100.25 25.2592C100.145 24.9827 100.04 24.7081 99.9347 24.4347L99.9327 24.4297L99.9318 24.4272L99.9315 24.4265C99.6554 23.7065 99.3828 22.9955 99.1227 22.2846ZM109.245 35.0227V35.0224V35.0222V35.022V35.0218V35.0216V35.0214C109.221 33.7993 109.198 32.6003 109.198 31.4244C106.391 31.4963 101.618 31.6882 102.265 35.6704C102.745 36.7979 103.489 37.0857 104.592 37.3976C106.175 37.2297 108.382 36.558 109.246 35.0947L109.245 35.0227ZM174.783 20.2221C172.408 20.4859 170.129 21.3016 167.97 22.3091C167.826 22.7649 168.714 24.684 169.098 25.2837C171.257 24.4681 173.08 23.9643 175.383 23.9643L175.39 23.972C175.456 24.0382 175.483 24.0655 176.222 24.2042C177.795 25.0356 177.895 26.33 178.019 27.9495L178.02 27.9546L178.028 28.0546L178.037 28.1702L178.046 28.2823C177.755 28.3009 177.457 28.3181 177.154 28.3355L177.153 28.3355L177.153 28.3355L177.153 28.3356L177.153 28.3356L177.153 28.3356C173.147 28.5662 168.184 28.8519 166.579 33.2001C165.787 37.1102 167.73 40.5886 171.808 41.1644C174.303 41.1644 176.222 40.0369 177.926 38.3337H178.093C178.381 40.3487 178.381 40.3487 178.501 40.7326C179.194 40.7326 179.892 40.7266 180.593 40.7207L180.594 40.7207H180.595H180.595H180.595H180.596H180.596C181.303 40.7146 182.013 40.7086 182.723 40.7086V27.0109C182.483 24.2282 181.764 22.597 179.413 21.0377C178.632 20.7341 178.113 20.5787 177.808 20.4873C177.607 20.427 177.498 20.3946 177.47 20.366C176.558 20.318 175.671 20.294 174.759 20.27L174.783 20.2221ZM171.329 36.1747C169.463 32.0367 175.253 31.4523 177.998 31.3775C177.998 32.6487 177.998 33.9439 178.046 35.2151C176.342 36.6305 173.104 38.6695 171.329 36.1747ZM129.204 20.7258V40.7325H129.324C130.931 40.6846 132.538 40.6846 134.17 40.6846H134.17C134.17 37.3483 134.158 34.0181 134.146 30.6909L134.146 30.6872V30.6846V30.6819V30.6793V30.6767C134.134 27.3577 134.122 24.0418 134.122 20.7258H129.204ZM118.913 10.3876V10.2676H123.927V40.6856H118.937C118.937 35.6215 118.925 30.5695 118.913 25.5205V25.5198V25.5192V25.5186L118.913 25.5096C118.901 20.4689 118.889 15.4312 118.889 10.3876H118.913ZM158.087 20.7738V40.6846H163.053C163.053 37.3471 163.041 34.0156 163.029 30.6872V30.6846V30.6819C163.017 27.3612 163.005 24.0435 163.005 20.7258C162.189 20.7258 161.367 20.7378 160.546 20.7498C159.724 20.7618 158.903 20.7738 158.087 20.7738ZM131.555 16.3127C129.036 16.0008 128.365 13.2901 129.948 11.5149C132.443 9.93165 134.866 11.8508 134.146 14.7054C133.498 15.7849 132.779 16.1928 131.555 16.3127ZM158.351 12.042C157.319 14.081 158.279 15.8802 160.414 16.312H160.438C160.499 16.3052 160.563 16.2966 160.63 16.2876C160.8 16.2648 160.985 16.24 161.157 16.24C163.053 15.5204 163.628 13.8891 162.717 11.994C161.445 10.5067 159.574 10.6506 158.351 12.042Z" fill="#2A2285"/>
</svg>
