<svg width="235" height="56" viewBox="0 0 235 56" fill="none" xmlns="http://www.w3.org/2000/svg">
<path fill-rule="evenodd" clip-rule="evenodd" d="M43.5966 17.0095C30.1323 17.0095 18.9689 27.506 18.202 40.8729C18.202 41.2156 18.2872 41.5155 18.5428 41.7726C18.7559 42.0296 19.0967 42.1582 19.4376 42.1582H28.428C29.0671 42.1582 29.5784 41.6869 29.6636 41.0014C30.3454 33.8039 36.3531 28.3628 43.6392 28.3628C50.9252 28.3628 56.933 33.8039 57.6147 41.0014C57.6573 41.6441 58.2112 42.1582 58.8504 42.1582H67.7981C68.139 42.1582 68.4799 42.0296 68.6929 41.7726C68.9059 41.5155 69.0338 41.2156 69.0338 40.8729C68.2242 27.4631 57.0608 17.0095 43.5966 17.0095Z" fill="#2A2285"/>
<path fill-rule="evenodd" clip-rule="evenodd" d="M43.5962 30.8478C37.2476 30.8478 32.0494 35.9889 32.0494 42.3296C32.0494 48.6703 37.2476 53.8115 43.5962 53.8115C49.9449 53.8115 55.1431 48.6703 55.1431 42.3296C55.1431 35.9889 49.9449 30.8478 43.5962 30.8478Z" fill="#2A2285"/>
<path fill-rule="evenodd" clip-rule="evenodd" d="M43.5963 3.17139C33.3703 3.17139 23.6555 7.07007 16.2843 14.1391C8.95565 21.2082 4.69482 30.6764 4.31134 40.8301C4.31134 41.1728 4.43917 41.4727 4.65221 41.7298C4.90786 41.9869 5.20612 42.1154 5.54698 42.1154H14.4521C15.0913 42.1154 15.6452 41.6013 15.6878 40.9586C16.4121 26.0922 28.6407 14.4819 43.5963 14.4819C58.5092 14.4819 70.7804 26.0922 71.5048 40.9586C71.5474 41.6013 72.0587 42.1154 72.7404 42.1154H81.6456C81.9864 42.1154 82.2847 41.9869 82.5403 41.7298C82.796 41.4727 82.8812 41.1728 82.8812 40.8301C82.4977 30.6764 78.2369 21.2082 70.9082 14.1391C63.537 7.11291 53.8223 3.17139 43.5963 3.17139Z" fill="#2A2285"/>
<path fill-rule="evenodd" clip-rule="evenodd" d="M129.153 8.14111H118.927C118.757 8.14111 118.629 8.2268 118.629 8.39817L112.238 33.4183H112.153L105.974 8.39817C105.932 8.26964 105.804 8.14111 105.676 8.14111H95.0241C94.8537 8.14111 94.7258 8.26964 94.6832 8.44101L92.4676 41.4727C92.4676 41.5584 92.5102 41.6441 92.5528 41.7298C92.5954 41.8155 92.7232 41.8155 92.8085 41.8155H98.3475C98.518 41.8155 98.6458 41.6869 98.6884 41.5156L100.308 14.0106H100.35L107.636 41.6012C107.679 41.7298 107.807 41.8583 107.934 41.8583H115.561C115.689 41.8583 115.817 41.7726 115.86 41.6012L123.401 14.0106H123.444L124.637 41.5156C124.637 41.6869 124.807 41.8155 124.978 41.8155H131.412C131.497 41.8155 131.582 41.7726 131.667 41.7298C131.71 41.6441 131.753 41.5584 131.753 41.4727L129.537 8.44101C129.494 8.26964 129.324 8.14111 129.153 8.14111Z" fill="#2A2285"/>
<path fill-rule="evenodd" clip-rule="evenodd" d="M145.642 15.8956C143.001 15.8956 138.953 16.3241 136.822 16.7953C136.695 16.8382 136.567 16.9667 136.567 17.0952V21.7651C136.567 21.8508 136.609 21.9364 136.695 22.0221C136.78 22.065 136.865 22.1078 136.95 22.065C138.442 21.7222 141.85 21.1653 145.259 21.1653C150.926 21.1653 151.096 22.5362 151.096 26.135H150.585C145.472 26.135 139.677 26.135 136.737 29.0483C135.502 30.2479 134.905 31.9188 134.905 33.9752C134.905 41.1728 140.572 42.2439 146.708 42.3296C147.262 42.3296 147.815 42.3724 148.369 42.3724C151.224 42.3724 154.207 42.1582 158.212 41.7298C158.382 41.7298 158.51 41.5584 158.51 41.387V24.4642C158.51 21.9364 157.786 19.9657 156.38 18.5947C153.908 16.1527 149.775 15.8528 145.642 15.8956ZM151.096 31.1048V37.1456C149.818 37.317 148.753 37.4027 147.517 37.4027C144.62 37.4027 142.575 37.1884 142.575 34.2323C142.575 31.2761 144.62 31.0619 147.517 31.0619C149.264 31.0619 150.457 31.0619 151.096 31.1048Z" fill="#2A2285"/>
<path fill-rule="evenodd" clip-rule="evenodd" d="M183.308 36.4173L182.882 36.4601C181.689 36.6315 180.539 36.76 178.579 36.76C172.102 36.76 169.46 34.4893 169.46 28.9626C169.46 23.4788 172.017 21.2938 178.579 21.2938C180.07 21.2938 181.348 21.4223 183.138 21.6365C183.223 21.6365 183.308 21.6365 183.393 21.5509C183.479 21.508 183.521 21.4223 183.521 21.2938V16.881C183.521 16.7096 183.436 16.5811 183.265 16.5811C181.135 16.1098 178.706 15.8528 175.979 15.8528C166.179 15.8528 161.791 22.2792 161.791 28.6199C161.791 37.1884 167.202 42.2867 176.278 42.2867C179.005 42.2867 181.263 42.0297 183.478 41.4727C183.606 41.4299 183.734 41.3013 183.734 41.1728V36.6743C183.734 36.5886 183.692 36.503 183.606 36.4173C183.479 36.4173 183.393 36.4173 183.308 36.4173Z" fill="#2A2285"/>
<path fill-rule="evenodd" clip-rule="evenodd" d="M203.719 16.5382C203.719 16.3669 203.591 16.1955 203.378 16.1955H202.952C200.736 16.1955 198.009 16.1526 194.004 18.4233V16.7096C194.004 16.5382 193.876 16.3669 193.663 16.3669H187.698C187.528 16.3669 187.357 16.4954 187.357 16.7096V41.5155C187.357 41.6869 187.485 41.8583 187.698 41.8583H194.43C194.601 41.8583 194.771 41.7297 194.771 41.5155V23.8215C196.987 22.3648 200.608 22.3648 203.037 22.3648H203.421C203.591 22.3648 203.761 22.2363 203.761 22.0221L203.719 16.5382Z" fill="#2A2285"/>
<path fill-rule="evenodd" clip-rule="evenodd" d="M217.269 15.8528C208.875 15.8528 203.677 20.9511 203.677 29.0912C203.677 37.2741 208.875 42.3296 217.269 42.3296C225.194 42.3296 230.776 36.8885 230.776 29.0912C230.776 20.9082 225.578 15.8528 217.269 15.8528ZM223.106 29.1769C223.106 34.8321 221.402 37.1456 217.226 37.1456C213.008 37.1456 211.304 34.8321 211.304 29.1769C211.304 23.4788 213.008 21.1653 217.226 21.1653C221.402 21.1653 223.106 23.4788 223.106 29.1769Z" fill="#2A2285"/>
</svg>
