<svg width="243" height="53" viewBox="0 0 243 53" fill="none" xmlns="http://www.w3.org/2000/svg">
<path d="M35.716 0.027704L32.9302 0H0.916168C0.409878 0 0 0.411672 0 0.919579V6.01226C0 11.5978 3.92872 14.6734 11.0633 14.6734L36.3318 14.721C39.0028 14.721 41.1675 16.8931 41.1675 19.5726C41.1675 22.2526 39.0028 24.4242 36.3318 24.4242H7.99503C7.58176 24.4242 7.22179 24.7052 7.12053 25.1076L0.416661 51.6704C0.348348 51.9407 0.408424 52.2279 0.578964 52.4481C0.749988 52.6687 1.01258 52.797 1.29116 52.797H10.2755C13.6417 52.797 15.2585 49.9946 15.6398 48.5238L18.2846 38.8682H36.3318C47.0061 38.8682 55.69 30.1565 55.69 19.4477C55.69 8.7394 47.0061 0.027704 36.3318 0.027704H35.716Z" fill="#2A2285"/>
<path fill-rule="evenodd" clip-rule="evenodd" d="M178.908 20.3363C184.566 20.3363 188.222 23.7521 188.222 29.0382C188.222 35.2162 183.618 39.6994 177.273 39.6994C171.615 39.6994 167.959 36.2841 167.959 30.9981C167.959 24.8201 172.563 20.3363 178.908 20.3363ZM168.33 13.8333C168.454 13.8333 168.571 13.8881 168.65 13.983C168.729 14.0774 168.761 14.2021 168.738 14.3227L163.785 38.8017C163.747 38.9951 163.575 39.1343 163.377 39.1343L158.712 39.1373C158.59 39.1373 158.473 39.0837 158.395 38.991C158.316 38.8978 158.28 38.7749 158.303 38.656C158.406 38.1194 158.498 37.6545 158.596 37.2129C157.135 38.8168 155.179 39.6995 152.951 39.6995C148.313 39.6995 145.196 36.2481 145.196 31.1112C145.196 24.8674 149.321 20.3358 155.005 20.3358C157.861 20.3358 160.156 21.5978 161.331 23.6485C161.444 23.031 163.249 14.1666 163.249 14.1666C163.287 13.9731 163.458 13.8333 163.657 13.8333H168.33ZM135.495 13.8333C135.619 13.8333 135.736 13.8881 135.815 13.983C135.893 14.0774 135.925 14.2021 135.902 14.3227L130.949 38.8017C130.911 38.9951 130.74 39.1343 130.541 39.1343L125.877 39.1373C125.754 39.1373 125.637 39.0837 125.559 38.991C125.48 38.8978 125.446 38.7749 125.468 38.656C125.571 38.1194 125.663 37.6545 125.76 37.2129C124.299 38.8168 122.344 39.6995 120.116 39.6995C115.477 39.6995 112.36 36.2481 112.36 31.1112C112.36 24.8674 116.486 20.3358 122.17 20.3358C125.025 20.3358 127.321 21.5978 128.496 23.6485C128.609 23.031 130.413 14.1666 130.413 14.1666C130.452 13.9731 130.623 13.8333 130.821 13.8333H135.495ZM196.408 20.3618C198.699 20.1626 201.199 20.6391 203.635 21.7403C203.842 21.8335 203.933 22.0729 203.841 22.278L202.225 25.8756C202.179 25.9764 202.095 26.0545 201.991 26.093C201.887 26.1314 201.77 26.1256 201.671 26.0778C200.032 25.3012 198.361 24.9196 197.086 25.0297C195.803 25.1415 195.856 25.7335 195.873 25.9281C195.904 26.2771 195.974 26.4617 197.317 27.19L199.606 28.3366C202.062 29.5671 203.145 30.9776 203.342 33.2078C203.669 36.9016 201.293 39.2436 196.823 39.6322C193.84 39.8909 190.928 39.1248 188.402 37.4154C188.225 37.2954 188.169 37.0618 188.275 36.8765L190.311 33.3179C190.367 33.2218 190.46 33.1513 190.568 33.1239C190.672 33.0977 190.792 33.1134 190.886 33.1723C192.957 34.4383 194.891 35.0349 196.48 34.8968C197.002 34.8513 197.866 34.6637 197.8 33.9145C197.771 33.5877 197.674 33.3319 196.636 32.7807L194.095 31.4623C191.792 30.2522 190.584 28.6471 190.399 26.5538C190.092 23.0832 192.394 20.7096 196.408 20.3618ZM101.733 20.3182C106.985 20.3182 110.248 23.205 110.248 27.8513C110.248 28.8639 110.077 29.8258 109.782 31.1437C109.74 31.3318 109.572 31.4653 109.377 31.4653L96.2912 31.5072C96.3253 33.6139 97.8792 34.8264 100.554 34.8264C101.861 34.8264 103.045 34.5304 104.301 33.868C104.458 33.7858 104.651 33.8103 104.774 33.9361L107.644 36.8754C107.817 37.0519 107.785 37.3479 107.578 37.4836C105.273 39.0089 103.085 39.6812 100.44 39.6812C94.6008 39.6812 90.9738 36.3615 90.9738 31.0167C90.9738 24.8171 95.4986 20.3182 101.733 20.3182ZM228.477 13.6889C228.647 13.6889 228.803 13.7839 228.879 13.9348C228.956 14.0851 228.94 14.2651 228.839 14.4009L216.804 29.8249L215.17 38.1143C215.052 38.7103 214.525 39.1409 213.912 39.1409H209.239C209.104 39.1409 208.976 39.0815 208.891 38.9783C208.805 38.8764 208.771 38.7406 208.796 38.6101L210.634 29.6746L204.508 14.2978C204.46 14.162 204.481 14.0105 204.565 13.8923C204.65 13.7752 204.787 13.7041 204.933 13.7041H210.711C210.911 13.7041 211.086 13.8352 211.143 14.0257C211.143 14.0257 214.362 23.1459 214.487 23.9813C214.945 23.0987 221.5 13.8864 221.5 13.8864C221.584 13.7629 221.725 13.6889 221.874 13.6889H228.477ZM228.9 21.1344C230.262 20.62 231.674 20.3881 233.13 20.4778C234.721 20.5757 236.33 21.3337 237.359 22.57L237.364 22.5484C237.473 21.9466 237.645 21.0855 237.645 21.0855C237.683 20.8973 237.849 20.761 238.043 20.761H242.595C242.716 20.761 242.83 20.8146 242.907 20.9072C242.984 20.9992 243.016 21.1204 242.993 21.2381L239.496 38.6436C239.458 38.8324 239.292 38.9675 239.098 38.9675L234.553 38.9705C234.434 38.9705 234.321 38.918 234.244 38.8277C234.167 38.7374 234.133 38.618 234.156 38.5015C234.232 38.0971 234.35 37.5134 234.443 37.0682C232.663 38.569 230.706 39.235 228.457 39.1301C224.272 38.9343 221.526 36.1419 221.483 31.9768C221.434 27.1906 224.419 22.8251 228.9 21.1344ZM138.319 22.3292H143.145C143.273 22.3292 143.395 22.3804 143.476 22.4672C143.54 22.5376 143.574 22.6252 143.573 22.714L143.566 22.7807L140.301 38.8281C140.268 38.9804 140.133 39.0968 139.966 39.1269L139.88 39.1346H135.053C134.926 39.1346 134.804 39.0839 134.724 38.9959C134.659 38.9265 134.624 38.8391 134.625 38.75L134.633 38.6831L137.899 22.6356C137.932 22.4833 138.066 22.367 138.233 22.3368L138.319 22.3292ZM81.5625 13.8328C87.2049 13.8328 90.5732 16.7394 90.5732 21.6071C90.5732 27.1623 86.5253 30.6131 80.0091 30.6131C80.0091 30.6131 75.2076 30.5809 74.4315 30.5768L74.3326 30.5764C74.3073 30.7 73.4007 35.5106 72.9086 37.6779C72.6094 38.9963 71.2959 38.98 71.2959 38.98L68.8906 38.9963H66.9728C66.8458 38.9963 66.7259 38.9404 66.6459 38.8431C66.5659 38.7464 66.5212 38.6194 66.5454 38.4964L71.457 14.173C71.4964 13.9755 71.671 13.8328 71.8738 13.8328H81.5625ZM156.35 25.4366C155.677 25.4366 155.033 25.5776 154.438 25.8532C153.836 26.1334 153.302 26.5144 152.853 26.9869C152.398 27.4635 152.028 28.0286 151.75 28.6672C151.472 29.308 151.312 29.9961 151.273 30.7133C151.242 31.307 151.306 31.8511 151.463 32.3306C151.617 32.802 151.853 33.2086 152.162 33.539C152.472 33.8687 152.851 34.1256 153.287 34.3028C154.224 34.682 155.501 34.657 156.531 34.2311C157.082 34.0039 157.581 33.6852 158.013 33.2826C158.451 32.8754 158.827 32.3895 159.128 31.8372C159.43 31.2843 159.643 30.669 159.76 30.0095C159.878 29.3098 159.878 28.6666 159.758 28.1038C159.641 27.5497 159.425 27.0702 159.116 26.677C158.81 26.2866 158.416 25.979 157.949 25.764C157.478 25.5467 156.94 25.4366 156.35 25.4366ZM123.435 25.4366C122.762 25.4366 122.118 25.5776 121.523 25.8532C120.921 26.1334 120.387 26.5144 119.938 26.9869C119.484 27.4635 119.113 28.0286 118.835 28.6672C118.557 29.308 118.397 29.9961 118.359 30.7133C118.327 31.307 118.391 31.8511 118.548 32.3306C118.702 32.802 118.937 33.2086 119.247 33.539C119.557 33.8687 119.936 34.1256 120.372 34.3028C121.309 34.682 122.586 34.657 123.616 34.2311C124.167 34.0039 124.665 33.6852 125.098 33.2826C125.536 32.8754 125.911 32.3895 126.213 31.8372C126.516 31.2843 126.729 30.669 126.845 30.0095C126.963 29.3098 126.963 28.6666 126.843 28.1038C126.726 27.5497 126.51 27.0702 126.201 26.677C125.895 26.2866 125.501 25.979 125.034 25.764C124.563 25.5467 124.025 25.4366 123.435 25.4366ZM178.538 25.7971C175.8 25.7971 173.813 27.8409 173.813 30.6561C173.813 32.8991 175.245 34.2386 177.644 34.2386C180.382 34.2386 182.368 32.1953 182.368 29.3796C182.368 27.1371 180.936 25.7971 178.538 25.7971ZM232.606 25.5081C231.962 25.5081 231.349 25.6415 230.781 25.9048C230.206 26.1722 229.697 26.5364 229.267 26.9867C228.834 27.4418 228.48 27.9813 228.216 28.5912C227.95 29.2024 227.797 29.859 227.76 30.5436C227.73 31.1099 227.791 31.6296 227.941 32.0875C228.088 32.5367 228.313 32.9253 228.608 33.2399C228.905 33.5551 229.266 33.8004 229.682 33.9693C230.577 34.3311 231.795 34.3067 232.778 33.9012C233.304 33.6844 233.78 33.3797 234.192 32.9952C234.611 32.6066 234.969 32.1428 235.257 31.6156C235.546 31.0883 235.749 30.501 235.859 29.8718C235.972 29.2042 235.972 28.5907 235.858 28.0529C235.746 27.5245 235.54 27.0666 235.245 26.6914C234.953 26.3185 234.578 26.0248 234.131 25.8198C233.682 25.6124 233.169 25.5081 232.606 25.5081ZM101.62 24.3807C99.2991 24.3807 97.7404 25.4411 96.8768 27.4919C97.2783 27.4919 104.869 27.5111 105.243 27.5111C105.169 25.4463 103.983 24.3807 101.62 24.3807ZM76.6708 19.0221C76.6309 19.2738 75.4197 25.2246 75.3891 25.3696C75.5238 25.3696 79.5801 25.3484 80.139 25.3455L80.2026 25.3452C82.8965 25.3452 84.4416 24.0669 84.4416 21.8379C84.4416 20.0481 83.2681 19.0623 81.1356 19.0623C81.1356 19.0623 76.906 19.0332 76.6708 19.0221ZM142.41 13.0973C144.276 13.0973 145.373 14.1396 145.342 15.8857C145.304 18.0769 143.729 19.6674 141.598 19.6674C139.731 19.6674 138.635 18.6251 138.666 16.879C138.705 14.6878 140.28 13.0973 142.41 13.0973Z" fill="#2A2285"/>
</svg>
